<?xml version="1.0" encoding="UTF-8" standalone="no"?>
<svg width="350.2464235749085mm" height="376.29528779971264mm" viewBox="0 0 350.2464235749085 376.29528779971264"
     xmlns="http://www.w3.org/2000/svg">
  <title>Honeycomb Pattern</title>
  <desc>Generated honeycomb pattern with 9 columns and 10 rows</desc>
  <style>
    .hexagon {
      fill: none;
      stroke: black;
      stroke-width: 1;
    }
  </style>
  <polygon class="hexagon" points="40.32,17.02 40.32,35.93 23.94,45.38 7.56,35.93 7.56,17.02 23.94,7.56" />
  <polygon class="hexagon" points="80.63,17.02 80.63,35.93 64.26,45.38 47.88,35.93 47.88,17.02 64.26,7.56" />
  <polygon class="hexagon" points="120.95,17.02 120.95,35.93 104.57,45.38 88.19,35.93 88.19,17.02 104.57,7.56" />
  <polygon class="hexagon" points="161.26,17.02 161.26,35.93 144.89,45.38 128.51,35.93 128.51,17.02 144.89,7.56" />
  <polygon class="hexagon" points="201.58,17.02 201.58,35.93 185.20,45.38 168.83,35.93 168.83,17.02 185.20,7.56" />
  <polygon class="hexagon" points="241.89,17.02 241.89,35.93 225.52,45.38 209.14,35.93 209.14,17.02 225.52,7.56" />
  <polygon class="hexagon" points="282.21,17.02 282.21,35.93 265.83,45.38 249.46,35.93 249.46,17.02 265.83,7.56" />
  <polygon class="hexagon" points="322.52,17.02 322.52,35.93 306.15,45.38 289.77,35.93 289.77,17.02 306.15,7.56" />
  <polygon class="hexagon" points="362.84,17.02 362.84,35.93 346.46,45.38 330.09,35.93 330.09,17.02 346.46,7.56" />
  <polygon class="hexagon" points="60.47,52.95 60.47,71.86 44.10,81.31 27.72,71.86 27.72,52.95 44.10,43.49" />
  <polygon class="hexagon" points="100.79,52.95 100.79,71.86 84.41,81.31 68.04,71.86 68.04,52.95 84.41,43.49" />
  <polygon class="hexagon" points="141.10,52.95 141.10,71.86 124.73,81.31 108.35,71.86 108.35,52.95 124.73,43.49" />
  <polygon class="hexagon" points="181.42,52.95 181.42,71.86 165.04,81.31 148.67,71.86 148.67,52.95 165.04,43.49" />
  <polygon class="hexagon" points="221.74,52.95 221.74,71.86 205.36,81.31 188.98,71.86 188.98,52.95 205.36,43.49" />
  <polygon class="hexagon" points="262.05,52.95 262.05,71.86 245.68,81.31 229.30,71.86 229.30,52.95 245.68,43.49" />
  <polygon class="hexagon" points="302.37,52.95 302.37,71.86 285.99,81.31 269.62,71.86 269.62,52.95 285.99,43.49" />
  <polygon class="hexagon" points="342.68,52.95 342.68,71.86 326.31,81.31 309.93,71.86 309.93,52.95 326.31,43.49" />
  <polygon class="hexagon" points="40.32,88.87 40.32,107.78 23.94,117.24 7.56,107.78 7.56,88.87 23.94,79.42" />
  <polygon class="hexagon" points="80.63,88.87 80.63,107.78 64.26,117.24 47.88,107.78 47.88,88.87 64.26,79.42" />
  <polygon class="hexagon" points="120.95,88.87 120.95,107.78 104.57,117.24 88.19,107.78 88.19,88.87 104.57,79.42" />
  <polygon class="hexagon" points="161.26,88.87 161.26,107.78 144.89,117.24 128.51,107.78 128.51,88.87 144.89,79.42" />
  <polygon class="hexagon" points="201.58,88.87 201.58,107.78 185.20,117.24 168.83,107.78 168.83,88.87 185.20,79.42" />
  <polygon class="hexagon" points="241.89,88.87 241.89,107.78 225.52,117.24 209.14,107.78 209.14,88.87 225.52,79.42" />
  <polygon class="hexagon" points="282.21,88.87 282.21,107.78 265.83,117.24 249.46,107.78 249.46,88.87 265.83,79.42" />
  <polygon class="hexagon" points="322.52,88.87 322.52,107.78 306.15,117.24 289.77,107.78 289.77,88.87 306.15,79.42" />
  <polygon class="hexagon" points="362.84,88.87 362.84,107.78 346.46,117.24 330.09,107.78 330.09,88.87 346.46,79.42" />
  <polygon class="hexagon" points="60.47,124.80 60.47,143.71 44.10,153.17 27.72,143.71 27.72,124.80 44.10,115.35" />
  <polygon class="hexagon" points="100.79,124.80 100.79,143.71 84.41,153.17 68.04,143.71 68.04,124.80 84.41,115.35" />
  <polygon class="hexagon" points="141.10,124.80 141.10,143.71 124.73,153.17 108.35,143.71 108.35,124.80 124.73,115.35" />
  <polygon class="hexagon" points="181.42,124.80 181.42,143.71 165.04,153.17 148.67,143.71 148.67,124.80 165.04,115.35" />
  <polygon class="hexagon" points="221.74,124.80 221.74,143.71 205.36,153.17 188.98,143.71 188.98,124.80 205.36,115.35" />
  <polygon class="hexagon" points="262.05,124.80 262.05,143.71 245.68,153.17 229.30,143.71 229.30,124.80 245.68,115.35" />
  <polygon class="hexagon" points="302.37,124.80 302.37,143.71 285.99,153.17 269.62,143.71 269.62,124.80 285.99,115.35" />
  <polygon class="hexagon" points="342.68,124.80 342.68,143.71 326.31,153.17 309.93,143.71 309.93,124.80 326.31,115.35" />
  <polygon class="hexagon" points="40.32,160.73 40.32,179.64 23.94,189.09 7.56,179.64 7.56,160.73 23.94,151.27" />
  <polygon class="hexagon" points="80.63,160.73 80.63,179.64 64.26,189.09 47.88,179.64 47.88,160.73 64.26,151.27" />
  <polygon class="hexagon" points="120.95,160.73 120.95,179.64 104.57,189.09 88.19,179.64 88.19,160.73 104.57,151.27" />
  <polygon class="hexagon" points="161.26,160.73 161.26,179.64 144.89,189.09 128.51,179.64 128.51,160.73 144.89,151.27" />
  <polygon class="hexagon" points="201.58,160.73 201.58,179.64 185.20,189.09 168.83,179.64 168.83,160.73 185.20,151.27" />
  <polygon class="hexagon" points="241.89,160.73 241.89,179.64 225.52,189.09 209.14,179.64 209.14,160.73 225.52,151.27" />
  <polygon class="hexagon" points="282.21,160.73 282.21,179.64 265.83,189.09 249.46,179.64 249.46,160.73 265.83,151.27" />
  <polygon class="hexagon" points="322.52,160.73 322.52,179.64 306.15,189.09 289.77,179.64 289.77,160.73 306.15,151.27" />
  <polygon class="hexagon" points="362.84,160.73 362.84,179.64 346.46,189.09 330.09,179.64 330.09,160.73 346.46,151.27" />
  <polygon class="hexagon" points="60.47,196.66 60.47,215.57 44.10,225.02 27.72,215.57 27.72,196.66 44.10,187.20" />
  <polygon class="hexagon" points="100.79,196.66 100.79,215.57 84.41,225.02 68.04,215.57 68.04,196.66 84.41,187.20" />
  <polygon class="hexagon" points="141.10,196.66 141.10,215.57 124.73,225.02 108.35,215.57 108.35,196.66 124.73,187.20" />
  <polygon class="hexagon" points="181.42,196.66 181.42,215.57 165.04,225.02 148.67,215.57 148.67,196.66 165.04,187.20" />
  <polygon class="hexagon" points="221.74,196.66 221.74,215.57 205.36,225.02 188.98,215.57 188.98,196.66 205.36,187.20" />
  <polygon class="hexagon" points="262.05,196.66 262.05,215.57 245.68,225.02 229.30,215.57 229.30,196.66 245.68,187.20" />
  <polygon class="hexagon" points="302.37,196.66 302.37,215.57 285.99,225.02 269.62,215.57 269.62,196.66 285.99,187.20" />
  <polygon class="hexagon" points="342.68,196.66 342.68,215.57 326.31,225.02 309.93,215.57 309.93,196.66 326.31,187.20" />
  <polygon class="hexagon" points="40.32,232.58 40.32,251.49 23.94,260.95 7.56,251.49 7.56,232.58 23.94,223.13" />
  <polygon class="hexagon" points="80.63,232.58 80.63,251.49 64.26,260.95 47.88,251.49 47.88,232.58 64.26,223.13" />
  <polygon class="hexagon" points="120.95,232.58 120.95,251.49 104.57,260.95 88.19,251.49 88.19,232.58 104.57,223.13" />
  <polygon class="hexagon" points="161.26,232.58 161.26,251.49 144.89,260.95 128.51,251.49 128.51,232.58 144.89,223.13" />
  <polygon class="hexagon" points="201.58,232.58 201.58,251.49 185.20,260.95 168.83,251.49 168.83,232.58 185.20,223.13" />
  <polygon class="hexagon" points="241.89,232.58 241.89,251.49 225.52,260.95 209.14,251.49 209.14,232.58 225.52,223.13" />
  <polygon class="hexagon" points="282.21,232.58 282.21,251.49 265.83,260.95 249.46,251.49 249.46,232.58 265.83,223.13" />
  <polygon class="hexagon" points="322.52,232.58 322.52,251.49 306.15,260.95 289.77,251.49 289.77,232.58 306.15,223.13" />
  <polygon class="hexagon" points="362.84,232.58 362.84,251.49 346.46,260.95 330.09,251.49 330.09,232.58 346.46,223.13" />
  <polygon class="hexagon" points="60.47,268.51 60.47,287.42 44.10,296.88 27.72,287.42 27.72,268.51 44.10,259.06" />
  <polygon class="hexagon" points="100.79,268.51 100.79,287.42 84.41,296.88 68.04,287.42 68.04,268.51 84.41,259.06" />
  <polygon class="hexagon" points="141.10,268.51 141.10,287.42 124.73,296.88 108.35,287.42 108.35,268.51 124.73,259.06" />
  <polygon class="hexagon" points="181.42,268.51 181.42,287.42 165.04,296.88 148.67,287.42 148.67,268.51 165.04,259.06" />
  <polygon class="hexagon" points="221.74,268.51 221.74,287.42 205.36,296.88 188.98,287.42 188.98,268.51 205.36,259.06" />
  <polygon class="hexagon" points="262.05,268.51 262.05,287.42 245.68,296.88 229.30,287.42 229.30,268.51 245.68,259.06" />
  <polygon class="hexagon" points="302.37,268.51 302.37,287.42 285.99,296.88 269.62,287.42 269.62,268.51 285.99,259.06" />
  <polygon class="hexagon" points="342.68,268.51 342.68,287.42 326.31,296.88 309.93,287.42 309.93,268.51 326.31,259.06" />
  <polygon class="hexagon" points="40.32,304.44 40.32,323.35 23.94,332.80 7.56,323.35 7.56,304.44 23.94,294.99" />
  <polygon class="hexagon" points="80.63,304.44 80.63,323.35 64.26,332.80 47.88,323.35 47.88,304.44 64.26,294.99" />
  <polygon class="hexagon" points="120.95,304.44 120.95,323.35 104.57,332.80 88.19,323.35 88.19,304.44 104.57,294.99" />
  <polygon class="hexagon" points="161.26,304.44 161.26,323.35 144.89,332.80 128.51,323.35 128.51,304.44 144.89,294.99" />
  <polygon class="hexagon" points="201.58,304.44 201.58,323.35 185.20,332.80 168.83,323.35 168.83,304.44 185.20,294.99" />
  <polygon class="hexagon" points="241.89,304.44 241.89,323.35 225.52,332.80 209.14,323.35 209.14,304.44 225.52,294.99" />
  <polygon class="hexagon" points="282.21,304.44 282.21,323.35 265.83,332.80 249.46,323.35 249.46,304.44 265.83,294.99" />
  <polygon class="hexagon" points="322.52,304.44 322.52,323.35 306.15,332.80 289.77,323.35 289.77,304.44 306.15,294.99" />
  <polygon class="hexagon" points="362.84,304.44 362.84,323.35 346.46,332.80 330.09,323.35 330.09,304.44 346.46,294.99" />
  <polygon class="hexagon" points="60.47,340.37 60.47,359.28 44.10,368.73 27.72,359.28 27.72,340.37 44.10,330.91" />
  <polygon class="hexagon" points="100.79,340.37 100.79,359.28 84.41,368.73 68.04,359.28 68.04,340.37 84.41,330.91" />
  <polygon class="hexagon" points="141.10,340.37 141.10,359.28 124.73,368.73 108.35,359.28 108.35,340.37 124.73,330.91" />
  <polygon class="hexagon" points="181.42,340.37 181.42,359.28 165.04,368.73 148.67,359.28 148.67,340.37 165.04,330.91" />
  <polygon class="hexagon" points="221.74,340.37 221.74,359.28 205.36,368.73 188.98,359.28 188.98,340.37 205.36,330.91" />
  <polygon class="hexagon" points="262.05,340.37 262.05,359.28 245.68,368.73 229.30,359.28 229.30,340.37 245.68,330.91" />
  <polygon class="hexagon" points="302.37,340.37 302.37,359.28 285.99,368.73 269.62,359.28 269.62,340.37 285.99,330.91" />
  <polygon class="hexagon" points="342.68,340.37 342.68,359.28 326.31,368.73 309.93,359.28 309.93,340.37 326.31,330.91" />
</svg>